PathFileType	4	(X/Y/Z)	C:\Users\WrightLab\Desktop\Jo\P2_Trial21.trc
DataRate	CameraRate	NumFrames	NumMarkers	Units	OrigDataRate	OrigDataStartFrame	OrigNumFrames
100.00	100.00	       48	19	mm	100.00	1	       600
Frame#	Time	Headset_Front			Headset_Back			Headset_Left			Headset_Right			Left_Shoulder			Right_Shoulder			Sternum			C7			Left Elbow			Right Elbow			Left Wrist			Right Wrist			Left ASIS			Right ASIS			S2			Left Knee			Right Knee			Left Ankle			Right Ankle			
		X1	Y1	Z1	X2	Y2	Z2	X3	Y3	Z3	X4	Y4	Z4	X5	Y5	Z5	X6	Y6	Z6	X7	Y7	Z7	X8	Y8	Z8	X9	Y9	Z9	X10	Y10	Z10	X11	Y11	Z11	X12	Y12	Z12	X13	Y13	Z13	X14	Y14	Z14	X15	Y15	Z15	X16	Y16	Z16	X17	Y17	Z17	X18	Y18	Z18	X19	Y19	Z19	

1	0.000																									86.26440	1126.95532	-1261.26050																			-62.50388	446.62082	-1212.23657				102.55495	186.29521	-1347.67944				
2	0.010																									82.00080	1128.27258	-1257.94019										-167.26717	989.27661	-1206.74023							-74.11243	451.27728	-1195.21240				88.54877	195.62422	-1332.88623				
3	0.020																									77.30692	1129.72485	-1258.35339										-172.15486	990.11298	-1203.59497							-84.81822	456.17374	-1179.63318				75.35073	204.25151	-1318.71753				
4	0.030																									74.26783	1131.64722	-1251.54285										-176.75420	991.17535	-1201.87097							-95.98914	459.48428	-1163.86182				61.52662	212.52235	-1304.31445				
5	0.040																									71.21463	1134.74182	-1243.94348										-181.98039	993.20654	-1196.44983							-103.89643	465.30792	-1141.30396				47.73008	218.69786	-1290.15515				
6	0.050																									66.23899	1135.75391	-1241.31982										-187.39777	994.79340	-1192.24878							-114.64837	467.83765	-1126.50745				35.11205	225.36842	-1276.91687				
7	0.060																									61.59003	1136.57385	-1238.28333										-192.51474	994.86639	-1188.55310							-126.42059	468.52341	-1111.27051				20.18499	230.86754	-1262.93994				
8	0.070																									58.57953	1138.45166	-1231.47803										-197.67389	995.49677	-1185.23401							-138.16188	470.55917	-1096.63196				6.46045	234.01712	-1246.50342				
9	0.080																									55.78939	1139.63562	-1224.94531										-203.58626	996.52399	-1179.90698							-147.43001	473.33133	-1083.54834				-8.23141	237.79305	-1234.32239				
10	0.090																									50.53727	1141.83337	-1218.70703										-209.94769	996.97601	-1175.67297							-158.48628	476.23932	-1071.99060				-22.78150	239.43678	-1218.83496				
11	0.100																									47.42690	1141.32544	-1220.86072										-215.19780	998.39789	-1170.59790							-169.57674	479.70935	-1060.31250				-37.67071	240.49878	-1203.92761				
12	0.110																									44.25222	1142.85620	-1214.46594										-221.48466	997.68427	-1170.68091							-178.69775	484.17004	-1049.88684				-52.00490	240.01985	-1189.11841				
13	0.120																									39.85085	1146.43201	-1201.59485										-226.52771	998.23053	-1167.77661							-187.40134	489.41830	-1041.55713				-67.08894	238.30144	-1174.28162				
14	0.130																									36.48161	1147.41309	-1193.66077										-233.52261	998.77411	-1163.41821							-195.88329	494.34207	-1032.81616				-81.17468	235.74127	-1158.46021				
15	0.140																									32.60570	1147.63623	-1194.13110										-240.39023	999.50977	-1158.90137							-203.95303	499.36478	-1025.23218				-96.21900	231.14818	-1143.59583				
16	0.150																									27.77614	1147.56042	-1189.14648										-246.06125	1000.84131	-1156.56470							-212.50612	502.25211	-1017.66406				-111.16761	227.13379	-1127.98047				
17	0.160																									23.85026	1149.31738	-1179.11121										-253.28320	1002.44263	-1150.32520							-219.71803	505.99435	-1011.00983				-124.69489	222.37427	-1114.42322				
18	0.170																									19.64321	1150.71924	-1169.87231										-258.75391	1003.93097	-1146.87024							-228.70854	507.77518	-1004.71649				-140.11339	215.43250	-1098.45825				
19	0.180																									15.07113	1149.98291	-1164.92590										-265.57254	1004.82458	-1142.26074							-236.31137	508.96820	-998.65314				-154.85786	208.49548	-1084.34216				
20	0.190																									8.59999	1150.15027	-1157.70068										-270.24207	1005.99823	-1136.48169							-244.95494	509.08209	-993.04138				-169.62387	200.60008	-1069.20325				
21	0.200																									5.18659	1150.99341	-1150.07751										-276.40018	1005.21674	-1134.64771							-252.98410	509.33975	-988.76825				-184.93184	192.02957	-1054.28870				
22	0.210																									0.57038	1151.33423	-1140.36353										-281.10025	1006.40997	-1126.53113							-259.65152	510.07303	-983.29724				-198.82512	183.45006	-1040.51355				
23	0.220																									-5.17143	1150.32410	-1136.51062										-285.79861	1006.31970	-1119.52197							-265.96848	510.76263	-979.25543				-216.10324	173.06195	-1019.08984				
24	0.230																									-10.68399	1148.88354	-1128.84644										-290.18048	1006.02686	-1111.90820							-272.54559	510.03723	-973.79248				-230.49150	163.83321	-1003.99469				
25	0.240																									-17.80722	1150.72021	-1103.97021										-295.45450	1004.58118	-1106.65991							-277.53622	509.41565	-968.57446				-245.58641	155.81856	-986.89050				
26	0.250																									-23.74248	1149.15295	-1098.69727										-299.55899	1003.97705	-1100.64380							-283.27689	508.94983	-963.48206				-269.54590	141.06793	-962.11597				
27	0.260																									-30.00842	1148.04968	-1093.38928										-303.80936	1002.78204	-1096.01660							-288.04373	506.45248	-960.61688				-272.78619	145.29359	-953.46155				
28	0.270																-474.74545	1415.29480	-1222.49609							-34.75783	1146.47437	-1087.79041										-308.41159	1001.58588	-1089.71082							-293.23996	504.06296	-955.86505				-297.91663	133.53735	-927.05536				
29	0.280																-479.12109	1413.44800	-1218.99438							-40.73219	1145.06335	-1082.55762										-312.42471	999.74493	-1082.27673	-434.30701	974.25385	-1138.03564				-298.00323	501.19736	-952.33514				-312.53314	130.13281	-908.73193				
30	0.290																-483.74707	1411.29211	-1215.39502							-46.18417	1142.93982	-1077.18237										-317.99490	996.17102	-1078.93311	-437.77271	973.30457	-1133.63843				-304.78439	497.77612	-947.40533				-317.51736	136.24124	-898.46674				
31	0.300																-488.46127	1409.12109	-1212.35291							-51.63369	1140.64282	-1071.62988										-321.96539	996.65753	-1070.15271	-443.87881	970.06299	-1129.46521				-312.97281	496.14069	-943.56189				-323.95963	140.58803	-878.99988				
32	0.310																-493.08148	1406.71167	-1208.58130							-57.55718	1139.17993	-1064.82031										-327.44623	993.21924	-1066.08923	-448.07849	970.89148	-1116.06775				-322.17542	494.11526	-939.64886				-338.36218	141.85255	-863.89014				
33	0.320																-497.68497	1404.28650	-1204.26599							-63.54702	1137.10571	-1058.75012										-332.76431	991.52850	-1060.10596	-452.99753	968.92719	-1109.75220				-330.70853	492.27332	-935.68091				-352.95398	142.52991	-848.84357				
34	0.330																-502.24667	1402.12976	-1200.05310							-73.71610	1134.52515	-1052.40674										-336.86594	990.40778	-1050.82300	-457.91473	967.02948	-1104.53174				-341.54196	489.44220	-930.58105				-367.10397	144.59805	-832.50964				
35	0.340																-506.99768	1399.44666	-1195.93689							-79.72237	1132.11218	-1045.49207										-343.21921	987.81012	-1043.49548	-462.72125	963.94122	-1098.66199				-350.42612	485.84634	-927.35223				-381.11386	145.25800	-817.10034				
36	0.350																-511.65497	1396.93469	-1191.26221							-85.93603	1129.43213	-1038.18652										-348.48450	985.42133	-1039.91089	-468.24631	962.02808	-1093.22644				-359.69373	482.47665	-924.11810				-393.31821	147.95250	-803.40472				
37	0.360																-516.34991	1394.32813	-1186.56299	-391.30838	1274.18933	-1078.23096				-87.81739	1139.32019	-998.15546										-355.76355	983.81207	-1032.55798	-472.66779	959.19171	-1086.78711				-366.71808	480.26413	-921.05511				-406.69913	149.88004	-790.76453				
38	0.370																-520.93854	1392.06274	-1181.23010	-396.37048	1270.86670	-1071.39563				-94.89870	1132.86377	-1006.30139										-361.16797	980.69531	-1025.78198	-479.10733	958.03455	-1080.45166				-376.23642	476.21576	-916.75745				-419.70007	151.05611	-776.87012				
39	0.380				-235.35477	1394.24622	-1061.65613				-522.19232	1499.07410	-1011.79895				-525.69312	1389.40381	-1176.45703	-402.08057	1268.50696	-1065.82153				-102.41698	1134.40588	-980.77606										-366.66730	978.50793	-1016.59271	-485.07654	955.05756	-1074.29944				-383.33368	474.15704	-911.68805				-431.35266	153.41338	-765.73151				
40	0.390				-240.84502	1391.08228	-1051.97888				-527.54431	1496.55933	-1005.21082				-530.38031	1387.09705	-1171.13440	-408.02682	1266.02429	-1059.77026				-109.37649	1131.49451	-972.48315										-374.12640	975.88245	-1011.91028	-490.50674	952.79602	-1067.84888				-391.19205	469.79779	-906.59314	-291.31152	899.38763	-1274.24390	-444.20929	154.51706	-754.90576				
41	0.400				-246.75911	1389.15869	-1045.99329				-532.99103	1493.89246	-998.33173				-535.07587	1384.98999	-1165.35205	-412.67209	1262.68982	-1052.24414				-114.77380	1128.28088	-963.70184										-380.57544	974.06219	-1006.57690	-496.74130	949.67450	-1061.82666				-396.90680	467.28384	-902.74127	-295.45239	896.72485	-1265.61365	-456.12616	155.87979	-744.61334				
42	0.410				-252.22224	1385.97290	-1036.51965				-538.44122	1490.93945	-991.09583				-539.85931	1382.98059	-1159.67676	-420.00626	1261.52905	-1046.09717	-364.67346	1375.08301	-1209.19629	-122.21739	1125.74097	-954.37665										-386.97150	971.71790	-995.15741	-503.67517	947.85779	-1055.49854				-403.74872	462.91528	-896.61194	-299.68607	894.57910	-1257.18958	-466.87772	156.64589	-736.06006				
43	0.420				-258.05850	1383.99011	-1030.90759	-313.94000	1479.12061	-758.36670	-543.88910	1488.39929	-983.81140				-544.72772	1380.98157	-1153.74146	-425.57965	1258.64221	-1039.31262	-368.97076	1373.09558	-1201.92700	-128.81227	1122.13892	-945.89899										-395.17139	969.54895	-988.91083	-509.39166	945.30225	-1049.24597	-678.65698	1117.74377	-1263.21997	-409.89438	458.52048	-890.20319	-303.95749	891.81268	-1248.22119	-478.67447	155.55902	-727.50452				
44	0.430	-460.79868	1424.76880	-868.85565	-263.98636	1382.09155	-1024.95874	-319.90860	1476.37292	-750.96942	-549.52679	1485.45837	-976.98877				-549.67352	1378.81360	-1147.38892	-432.72919	1257.24768	-1031.58362	-373.49966	1370.72107	-1195.20386	-135.43652	1119.12476	-935.74652										-401.90903	969.01624	-980.94659	-516.11743	942.86389	-1042.64697	-682.87018	1115.60352	-1256.87085	-417.95825	452.62781	-883.86127	-308.17892	888.83948	-1238.31360	-488.18573	156.03987	-718.50104				
45	0.440	-465.90073	1421.42273	-861.74323	-269.76108	1378.69519	-1014.28253				-554.98804	1482.75696	-969.30841				-554.41742	1377.37793	-1141.65698	-439.44806	1254.51831	-1025.39734	-378.00613	1368.27258	-1187.20825	-142.78656	1116.03564	-927.75745										-410.52994	966.36389	-974.33392	-522.48358	940.70575	-1036.44446	-686.88397	1115.34668	-1248.53162	-423.32376	448.28513	-878.30670	-312.63245	886.31189	-1229.05408	-498.20590	154.90852	-710.40179				
46	0.450	-472.40836	1418.93835	-853.84692	-275.81332	1375.66980	-1003.97369				-560.71588	1479.93945	-962.11139				-559.23444	1375.80811	-1135.24304	-445.83511	1253.13745	-1017.72247	-382.49872	1366.18823	-1179.73230	-149.60596	1113.40283	-916.89716										-418.98492	965.20673	-964.81555	-529.24005	939.23175	-1030.01038	-692.60809	1112.32275	-1241.76050	-430.70416	442.64578	-872.09924	-317.04242	883.17975	-1218.07886	-509.42319	151.59906	-703.06824				
47	0.460	-477.20520	1415.72595	-847.35797	-281.63913	1373.17627	-994.89703				-566.33185	1477.46167	-954.61023				-564.10278	1374.23999	-1128.72119	-452.17291	1250.74951	-1009.70911	-387.11566	1364.07153	-1171.89124	-156.79939	1110.26721	-907.75665										-428.18784	963.61261	-959.61407	-537.35974	937.63593	-1023.41797	-696.13159	1111.10742	-1237.73730	-437.40085	436.83435	-864.54828	-321.73483	880.46655	-1207.83447	-519.45166	147.49649	-696.96454				
48	0.470				-287.11914	1370.33350	-984.48169				-572.12457	1474.32947	-946.12134				-569.16815	1372.83728	-1121.86475	-457.95123	1249.41199	-1002.84674	-391.71402	1362.14087	-1163.55640	-162.24408	1108.24280	-897.68384										-436.55194	962.36133	-946.97314	-544.89874	936.00909	-1017.03406	-700.27454	1109.54333	-1229.74695	-443.78018	431.99969	-857.32654				-529.11670	141.83334	-689.94855				
